<svg width="164" height="178" viewBox="0 0 164 178" fill="none" xmlns="http://www.w3.org/2000/svg">
<g filter="url(#filter0_i_61_1093)">
<path d="M63.9214 41.7726C63.9214 39.2111 63.4169 36.6748 62.4367 34.3084C61.4565 31.9419 60.0197 29.7917 58.2085 27.9805C56.3973 26.1693 54.2471 24.7326 51.8807 23.7524C49.5143 22.7722 46.9779 22.2677 44.4165 22.2677C41.8551 22.2677 39.3187 22.7722 36.9523 23.7524C34.5859 24.7326 32.4357 26.1693 30.6245 27.9805C28.8133 29.7917 27.3766 31.9419 26.3963 34.3084C25.4161 36.6748 24.9116 39.2111 24.9116 41.7726C24.931 44.812 25.6682 47.804 27.0632 50.5045C22.5875 51.8492 18.7456 54.7603 16.2402 58.7053C13.7348 62.6502 12.7335 67.3654 13.4194 71.9881C14.1054 76.6108 16.4327 80.832 19.9756 83.8795C23.5186 86.927 28.0403 88.5971 32.7136 88.5843" stroke="#43D6FA" stroke-width="7" stroke-linecap="round" stroke-linejoin="round"/>
<path d="M13.3569 79.758C10.1764 82.3877 7.67333 85.7421 6.05796 89.5397C4.44259 93.3373 3.76208 97.467 4.07359 101.582C4.3851 105.697 5.67953 109.677 7.84817 113.189C10.0168 116.7 12.9963 119.639 16.5365 121.76C20.0766 123.881 24.074 125.121 28.1929 125.377C32.3119 125.633 36.432 124.897 40.2074 123.23C43.9827 121.563 47.303 119.015 49.8894 115.799C52.4758 112.584 54.2527 108.794 55.071 104.749V103.475" stroke="#43D6FA" stroke-width="7" stroke-miterlimit="10" stroke-linecap="round"/>
<path d="M31.2217 156.265C27.5268 154.322 24.4334 151.406 22.2757 147.832C20.118 144.258 18.9782 140.163 18.9794 135.988C19.0022 132.419 19.8678 128.906 21.5058 125.734" stroke="#43D6FA" stroke-width="7" stroke-linecap="round" stroke-linejoin="round"/>
<path d="M70.1611 59.2638C70.1611 64.1494 68.2203 68.8349 64.7657 72.2896C61.311 75.7443 56.6255 77.6851 51.7399 77.6851" stroke="#43D6FA" stroke-width="7" stroke-miterlimit="10" stroke-linecap="round"/>
<path d="M70.1611 59.3006H112.53L119.976 51.8584" stroke="#43D6FA" stroke-width="7" stroke-miterlimit="10" stroke-linecap="round"/>
<path d="M94.1087 74.0376H116.214L123.66 66.5954H143.846" stroke="#43D6FA" stroke-width="7" stroke-miterlimit="10" stroke-linecap="round"/>
<path d="M91.9608 118.175H112.53L119.976 125.617" stroke="#43D6FA" stroke-width="7" stroke-miterlimit="10" stroke-linecap="round"/>
<path d="M91.9608 103.438H116.214L123.66 110.88H143.846" stroke="#43D6FA" stroke-width="7" stroke-miterlimit="10" stroke-linecap="round"/>
<path d="M143.846 140.355H116.291L110.689 132.91L92.4201 132.911V155.208C92.4201 160.094 90.4792 164.779 87.0246 168.234C83.5699 171.689 78.8844 173.63 73.9988 173.63C69.1132 173.63 64.4276 171.689 60.973 168.234C57.5183 164.779 55.5775 160.094 55.5775 155.208" stroke="#43D6FA" stroke-width="7" stroke-miterlimit="10" stroke-linecap="round"/>
<path d="M62.9461 15.5461C63.777 11.9767 65.8917 8.83753 68.8874 6.72636C71.8831 4.61519 75.5506 3.6795 79.1915 4.09745C82.8325 4.5154 86.1926 6.2578 88.6319 8.99287C91.0713 11.7279 92.4197 15.2646 92.4201 18.9295V44.5636L108.847 44.5641L116.292 37.1198H143.846" stroke="#43D6FA" stroke-width="7" stroke-miterlimit="10" stroke-linecap="round"/>
<path d="M132.793 88.7379H92.4201" stroke="#43D6FA" stroke-width="7" stroke-miterlimit="10" stroke-linecap="round"/>
<path d="M40.8713 74.0008C40.8713 74.1025 40.7888 74.185 40.6871 74.185C40.5853 74.185 40.5028 74.1025 40.5028 74.0008C40.5028 73.899 40.5853 73.8165 40.6871 73.8165C40.7888 73.8165 40.8713 73.899 40.8713 74.0008Z" fill="#42D3F7" stroke="#43D6FA" stroke-width="7"/>
<path d="M43.788 160.581C43.788 160.683 43.7055 160.765 43.6037 160.765C43.502 160.765 43.4195 160.683 43.4195 160.581C43.4195 160.479 43.502 160.397 43.6037 160.397C43.7055 160.397 43.788 160.479 43.788 160.581Z" fill="#42D3F7" stroke="#43D6FA" stroke-width="7"/>
<path d="M152.98 44.5268C157.05 44.5268 160.349 41.2278 160.349 37.1583C160.349 33.0888 157.05 29.7898 152.98 29.7898C148.911 29.7898 145.612 33.0888 145.612 37.1583C145.612 41.2278 148.911 44.5268 152.98 44.5268Z" stroke="#43D6FA" stroke-width="7" stroke-miterlimit="10" stroke-linecap="round"/>
<path d="M152.98 74.0008C157.05 74.0008 160.349 70.7018 160.349 66.6323C160.349 62.5628 157.05 59.2638 152.98 59.2638C148.911 59.2638 145.612 62.5628 145.612 66.6323C145.612 70.7018 148.911 74.0008 152.98 74.0008Z" stroke="#43D6FA" stroke-width="7" stroke-miterlimit="10" stroke-linecap="round"/>
<path d="M152.98 118.212C157.05 118.212 160.349 114.913 160.349 110.843C160.349 106.774 157.05 103.475 152.98 103.475C148.911 103.475 145.612 106.774 145.612 110.843C145.612 114.913 148.911 118.212 152.98 118.212Z" stroke="#43D6FA" stroke-width="7" stroke-miterlimit="10" stroke-linecap="round"/>
<path d="M152.98 147.686C157.05 147.686 160.349 144.387 160.349 140.317C160.349 136.248 157.05 132.949 152.98 132.949C148.911 132.949 145.612 136.248 145.612 140.317C145.612 144.387 148.911 147.686 152.98 147.686Z" stroke="#43D6FA" stroke-width="7" stroke-miterlimit="10" stroke-linecap="round"/>
</g>
<defs>
<filter id="filter0_i_61_1093" x="0.5" y="0.5" width="163.349" height="180.63" filterUnits="userSpaceOnUse" color-interpolation-filters="sRGB">
<feFlood flood-opacity="0" result="BackgroundImageFix"/>
<feBlend mode="normal" in="SourceGraphic" in2="BackgroundImageFix" result="shape"/>
<feColorMatrix in="SourceAlpha" type="matrix" values="0 0 0 0 0 0 0 0 0 0 0 0 0 0 0 0 0 0 127 0" result="hardAlpha"/>
<feOffset dy="4"/>
<feGaussianBlur stdDeviation="2"/>
<feComposite in2="hardAlpha" operator="arithmetic" k2="-1" k3="1"/>
<feColorMatrix type="matrix" values="0 0 0 0 0 0 0 0 0 0 0 0 0 0 0 0 0 0 0.25 0"/>
<feBlend mode="normal" in2="shape" result="effect1_innerShadow_61_1093"/>
</filter>
</defs>
</svg>
